<svg width="204" height="41" viewBox="0 0 204 41" fill="none" xmlns="http://www.w3.org/2000/svg">
<path d="M60.6 31.216C58.92 31.216 57.448 30.856 56.184 30.136C54.936 29.416 53.976 28.4 53.304 27.088C52.632 25.76 52.296 24.208 52.296 22.432C52.296 20.672 52.632 19.136 53.304 17.824C53.976 16.496 54.936 15.48 56.184 14.776C57.448 14.056 58.92 13.696 60.6 13.696C61.752 13.696 62.832 13.88 63.84 14.248C64.864 14.6 65.712 15.096 66.384 15.736L65.376 17.992C64.608 17.368 63.84 16.92 63.072 16.648C62.32 16.36 61.512 16.216 60.648 16.216C59 16.216 57.72 16.752 56.808 17.824C55.912 18.896 55.464 20.432 55.464 22.432C55.464 24.448 55.912 26 56.808 27.088C57.704 28.16 58.984 28.696 60.648 28.696C61.512 28.696 62.32 28.56 63.072 28.288C63.84 28 64.608 27.544 65.376 26.92L66.384 29.176C65.712 29.816 64.864 30.32 63.84 30.688C62.832 31.04 61.752 31.216 60.6 31.216ZM74.3233 31.192C73.0913 31.192 72.0033 30.936 71.0593 30.424C70.1313 29.912 69.4113 29.184 68.8993 28.24C68.4033 27.28 68.1553 26.16 68.1553 24.88C68.1553 23.6 68.4033 22.488 68.8993 21.544C69.4113 20.584 70.1313 19.848 71.0593 19.336C72.0033 18.824 73.0913 18.568 74.3233 18.568C75.5393 18.568 76.6113 18.824 77.5393 19.336C78.4673 19.848 79.1793 20.584 79.6753 21.544C80.1873 22.488 80.4433 23.6 80.4433 24.88C80.4433 26.16 80.1873 27.28 79.6753 28.24C79.1793 29.184 78.4673 29.912 77.5393 30.424C76.6113 30.936 75.5393 31.192 74.3233 31.192ZM74.2993 28.84C75.3233 28.84 76.0993 28.512 76.6273 27.856C77.1713 27.184 77.4433 26.192 77.4433 24.88C77.4433 23.584 77.1713 22.6 76.6273 21.928C76.0833 21.24 75.3153 20.896 74.3233 20.896C73.3153 20.896 72.5393 21.24 71.9953 21.928C71.4513 22.6 71.1793 23.584 71.1793 24.88C71.1793 26.192 71.4433 27.184 71.9713 27.856C72.5153 28.512 73.2913 28.84 74.2993 28.84ZM94.2915 18.904L88.9875 31H86.3715L81.1395 18.904H84.2835L87.7635 27.592L91.3155 18.904H94.2915ZM95.8508 18.88H98.8268V31H95.8508V18.88ZM98.9948 13.384V16.336H95.6588V13.384H98.9948ZM113.701 13.336V31H110.749V29.056C110.381 29.728 109.853 30.256 109.165 30.64C108.477 31.008 107.693 31.192 106.813 31.192C105.773 31.192 104.845 30.928 104.029 30.4C103.213 29.872 102.573 29.128 102.109 28.168C101.661 27.192 101.437 26.08 101.437 24.832C101.437 23.584 101.661 22.488 102.109 21.544C102.557 20.6 103.189 19.872 104.005 19.36C104.821 18.832 105.757 18.568 106.813 18.568C107.677 18.568 108.445 18.752 109.117 19.12C109.805 19.472 110.333 19.976 110.701 20.632V13.336H113.701ZM107.605 28.84C108.597 28.84 109.365 28.496 109.909 27.808C110.469 27.12 110.749 26.144 110.749 24.88C110.749 23.616 110.477 22.64 109.933 21.952C109.389 21.264 108.621 20.92 107.629 20.92C106.621 20.92 105.837 21.264 105.277 21.952C104.733 22.624 104.461 23.584 104.461 24.832C104.461 26.096 104.733 27.08 105.277 27.784C105.837 28.488 106.613 28.84 107.605 28.84ZM131.522 31.216C129.842 31.216 128.37 30.856 127.106 30.136C125.858 29.416 124.898 28.4 124.226 27.088C123.554 25.76 123.218 24.208 123.218 22.432C123.218 20.672 123.554 19.136 124.226 17.824C124.898 16.496 125.858 15.48 127.106 14.776C128.37 14.056 129.842 13.696 131.522 13.696C132.674 13.696 133.754 13.88 134.762 14.248C135.786 14.6 136.634 15.096 137.306 15.736L136.298 17.992C135.53 17.368 134.762 16.92 133.994 16.648C133.242 16.36 132.434 16.216 131.57 16.216C129.922 16.216 128.642 16.752 127.73 17.824C126.834 18.896 126.386 20.432 126.386 22.432C126.386 24.448 126.834 26 127.73 27.088C128.626 28.16 129.906 28.696 131.57 28.696C132.434 28.696 133.242 28.56 133.994 28.288C134.762 28 135.53 27.544 136.298 26.92L137.306 29.176C136.634 29.816 135.786 30.32 134.762 30.688C133.754 31.04 132.674 31.216 131.522 31.216ZM139.984 13.336H142.96V31H139.984V13.336ZM146.241 18.88H149.217V31H146.241V18.88ZM149.385 13.384V16.336H146.049V13.384H149.385ZM159.435 18.568C162.331 18.568 163.779 20.232 163.779 23.56V31H160.779V23.704C160.779 22.744 160.595 22.048 160.227 21.616C159.859 21.168 159.291 20.944 158.523 20.944C157.611 20.944 156.875 21.24 156.315 21.832C155.755 22.408 155.475 23.176 155.475 24.136V31H152.499V22.312C152.499 21.032 152.435 19.888 152.307 18.88H155.115L155.331 20.872C155.747 20.136 156.307 19.568 157.011 19.168C157.731 18.768 158.539 18.568 159.435 18.568ZM166.96 18.88H169.936V31H166.96V18.88ZM170.104 13.384V16.336H166.768V13.384H170.104ZM178.714 31.192C177.45 31.192 176.354 30.936 175.426 30.424C174.498 29.912 173.786 29.192 173.29 28.264C172.794 27.32 172.546 26.216 172.546 24.952C172.546 23.688 172.802 22.576 173.314 21.616C173.842 20.656 174.578 19.912 175.522 19.384C176.482 18.84 177.586 18.568 178.834 18.568C179.698 18.568 180.53 18.704 181.33 18.976C182.146 19.248 182.794 19.624 183.274 20.104L182.434 22.216C181.922 21.8 181.378 21.488 180.802 21.28C180.226 21.056 179.658 20.944 179.098 20.944C178.01 20.944 177.162 21.288 176.554 21.976C175.946 22.648 175.642 23.624 175.642 24.904C175.642 26.184 175.938 27.16 176.53 27.832C177.138 28.504 177.994 28.84 179.098 28.84C179.658 28.84 180.226 28.728 180.802 28.504C181.378 28.28 181.922 27.96 182.434 27.544L183.274 29.656C182.762 30.136 182.098 30.512 181.282 30.784C180.466 31.056 179.61 31.192 178.714 31.192Z" fill="black"/>
<circle cx="20.5" cy="20.5" r="20.5" fill="#202B6D"/>
<path d="M21.4 30.234C19.58 30.234 17.9853 29.844 16.616 29.064C15.264 28.284 14.224 27.1833 13.496 25.762C12.768 24.3233 12.404 22.642 12.404 20.718C12.404 18.8113 12.768 17.1473 13.496 15.726C14.224 14.2873 15.264 13.1867 16.616 12.424C17.9853 11.644 19.58 11.254 21.4 11.254C22.648 11.254 23.818 11.4533 24.91 11.852C26.0193 12.2333 26.938 12.7707 27.666 13.464L26.574 15.908C25.742 15.232 24.91 14.7467 24.078 14.452C23.2633 14.14 22.388 13.984 21.452 13.984C19.6667 13.984 18.28 14.5647 17.292 15.726C16.3213 16.8873 15.836 18.5513 15.836 20.718C15.836 22.902 16.3213 24.5833 17.292 25.762C18.2627 26.9233 19.6493 27.504 21.452 27.504C22.388 27.504 23.2633 27.3567 24.078 27.062C24.91 26.75 25.742 26.256 26.574 25.58L27.666 28.024C26.938 28.7173 26.0193 29.2633 24.91 29.662C23.818 30.0433 22.648 30.234 21.4 30.234Z" fill="#E2E2E2"/>
</svg>
